<svg
    xmlns="http://www.w3.org/2000/svg"
    width="933"
    height="347"
    fill="none"
  >
    <path
      fill="#071B34"
      d="M2.2 0C1 0 0 1 0 2.2v563.1c0 1.2 1 2.2 2.1 2.2a19396 19396 0 01266.8 0c85.5-25.3 109.8-95.7 111.3-127.8.3-7.2.8-28.6 0-56.3C371.8 314 318.3 274 290 261.2c-1.4-.6-3 .4-3 2v91.4c0 .4.1.8.4 1.2a130.6 130.6 0 0117 43v25.9c-7 41.2-35.8 59.5-49.6 63.7a2 2 0 01-.6 0H77c-1.2 0-2.2-.9-2.2-2.1l-1-407.2c0-1.2 1-2.2 2.1-2.2H244c25 7.1 49.2 30.4 58.2 41.2l276.6 447.3c.4.7 1.1 1 1.8 1h41c1.3 0 2.2-1 2.2-2.1V79c0-1.2 1-2.2 2.2-2.2h154.6l.6.1a97.7 97.7 0 0162.5 66.2V170c-1.7 44-45.8 68.8-68 75.8H687c-.2 0-.4 0-.6.2-19.7 6-26 21.2-26.8 28v15.3c2.6 17 18.6 27.7 26.7 31.1l.8.2h103.8a92 92 0 0165.8 68.4v33.6c-7 43.9-52.5 63.6-74.5 68a2 2 0 01-.4 0H653c-1.2 0-2.2 1-2.2 2.2v71.5c0 1.2 1 2.1 2.2 2.1h135.4l16-1h.4c3.3-.8 11-2.4 16-3.3C905 538.7 930.5 463.6 932.6 429c.4-7.2.9-25.6 0-41.2-4.3-63.2-41.4-91.4-68.4-112a.8.8 0 010-1.2c39.2-25.3 54-75.7 56.5-98 0-8.3-.2-29-1-45.4C913.4 42.8 831.2 7 790.7 0a2 2 0 00-.3-.1H549c-1 .1-2 1.1-2 2.3v362.6c0 2.2-2.8 3-4 1.2-53-87.3-158.7-260.8-186.6-306.4C326 17 273.7 2.2 251.3 0H2.2z"
    ></path>
    <path
      fill="#071B34"
      d="M259.9 248.8v73.9c0 1.5-1.6 2.6-3 2.1a109 109 0 00-24-4.2H132.5l-.7-.1a51.4 51.4 0 01-30-28.5v-16.9c2.6-18.9 21-28.7 30-31.3l.6-.1 123.2 1c2.5 0 3.8 2.6 4.3 4.1z"
    ></path>
</svg>
