<svg xmlns="http://www.w3.org/2000/svg" width="32" height="32" fill="none"><rect width="32" height="32" fill="#18295D" rx="8"/><path fill="#B7FBFF" d="M5 9.3v13.3a456.4 456.4 0 0 1 6.3 0c2-.5 2.6-2.2 2.7-3v-1.3a3.8 3.8 0 0 0-2.2-2.8v2.2a3 3 0 0 1 .4 1v.6a1.9 1.9 0 0 1-1.2 1.5H6.8v-9.6h4c.5 0 1.1.6 1.3.9l6.5 10.5h1.1V11.2h3.7a2.3 2.3 0 0 1 1.5 1.5v.6c0 1-1 1.6-1.6 1.8h-2.1c-.5.2-.6.5-.6.7v.3c0 .4.4.7.6.8h2.4a2.2 2.2 0 0 1 1.6 1.6v.8c-.2 1-1.2 1.5-1.8 1.6h-3v1.7h4c2-.6 2.5-2.4 2.6-3.2v-1c-.1-1.4-1-2.1-1.6-2.6.9-.6 1.2-1.8 1.3-2.3v-1.1c-.2-2-2.1-3-3-3h-5.8v8.5h-.1l-4.4-7.2c-.7-1-2-1.3-2.5-1.4H5.1Z"/><path fill="#B7FBFF" d="M11.1 15.2v1.7H8a1.2 1.2 0 0 1-.7-.7v-.4c0-.4.5-.7.7-.7a3706.1 3706.1 0 0 0 3 0Z"/></svg>