<svg xmlns="http://www.w3.org/2000/svg" width="32" height="32" fill="none"><rect width="32" height="32" fill="#18295D" rx="6"/><path fill="#B7FBFF" d="M4.4 11.6v8.7a298.8 298.8 0 0 1 4 0 2.3 2.3 0 0 0 1.8-2v-.8c-.1-1-1-1.7-1.4-1.9v1.5a2 2 0 0 1 .2.6v.4a1.2 1.2 0 0 1-.7 1H5.5v-6.3h2.6c.4.1.8.5.9.6l4.3 7h.6v-7.6h2.5a1.5 1.5 0 0 1 1 1v.4c-.1.7-.8 1-1.1 1.2h-1.4c-.3 0-.4.3-.4.4v.3c0 .2.3.4.4.4h1.6a1.4 1.4 0 0 1 1 1.1v.5c0 .7-.8 1-1.1 1h-2v1.2H17a2.3 2.3 0 0 0 1.7-2v-.7c0-1-.6-1.4-1-1.7.5-.5.8-1.2.8-1.6v-.7c-.1-1.3-1.4-1.9-2-2h-3.7v5.6h-.1l-2.9-4.7c-.4-.6-1.2-.8-1.6-.9H4.4Z"/><path fill="#B7FBFF" d="M8.3 15.4v1.2H6.4a.8.8 0 0 1-.5-.5v-.3c0-.2.3-.4.5-.4h1.9ZM19.5 12.8v-1.1h6.3v1.1h-2.6v7.5h-1.1V13h-2.6ZM27.6 11.6v8.7h-1v-8.6h1Z"/></svg>